<?xml version="1.0" encoding="UTF-8" standalone="no"?>
<svg
   xmlns:dc="http://purl.org/dc/elements/1.1/"
   xmlns:cc="http://creativecommons.org/ns#"
   xmlns:rdf="http://www.w3.org/1999/02/22-rdf-syntax-ns#"
   xmlns:svg="http://www.w3.org/2000/svg"
   xmlns="http://www.w3.org/2000/svg"
   xmlns:xlink="http://www.w3.org/1999/xlink"
   xmlns:sodipodi="http://sodipodi.sourceforge.net/DTD/sodipodi-0.dtd"
   xmlns:inkscape="http://www.inkscape.org/namespaces/inkscape"
   version="1.1"
   width="128"
   height="128"
   id="svg3277"
   sodipodi:docname="com.github.jeremypw.bulk-renamer-128.svg"
   inkscape:version="0.92.3 (2405546, 2018-03-11)">
  <sodipodi:namedview
     pagecolor="#ffffff"
     bordercolor="#666666"
     borderopacity="1"
     objecttolerance="1"
     gridtolerance="1"
     guidetolerance="1"
     inkscape:pageopacity="0"
     inkscape:pageshadow="2"
     inkscape:window-width="1920"
     inkscape:window-height="962"
     id="namedview1273"
     showgrid="true"
     inkscape:zoom="22.627417"
     inkscape:cx="117.95457"
     inkscape:cy="119.89847"
     inkscape:window-x="0"
     inkscape:window-y="30"
     inkscape:window-maximized="1"
     inkscape:current-layer="svg3277"
     inkscape:snap-path-clip="true"
     showguides="false">
    <inkscape:grid
       type="xygrid"
       id="grid1767"
       snapvisiblegridlinesonly="false" />
  </sodipodi:namedview>
  <defs
     id="defs3279">
    <linearGradient
       id="linearGradient989"
       inkscape:collect="always">
      <stop
         id="stop985"
         offset="0"
         style="stop-color:#8e4e00;stop-opacity:1" />
      <stop
         id="stop987"
         offset="1"
         style="stop-color:#f9c440;stop-opacity:1" />
    </linearGradient>
    <linearGradient
       inkscape:collect="always"
       id="linearGradient967">
      <stop
         style="stop-color:#242424;stop-opacity:1"
         offset="0"
         id="stop963" />
      <stop
         style="stop-color:#929292;stop-opacity:1"
         offset="1"
         id="stop965" />
    </linearGradient>
    <linearGradient
       id="linearGradient1748"
       inkscape:collect="always">
      <stop
         id="stop1744"
         offset="0"
         style="stop-color:#090909;stop-opacity:1" />
      <stop
         id="stop1746"
         offset="1"
         style="stop-color:#938888;stop-opacity:1" />
    </linearGradient>
    <linearGradient
       inkscape:collect="always"
       id="linearGradient1558">
      <stop
         style="stop-color:#ad5f00;stop-opacity:1"
         offset="0"
         id="stop1554" />
      <stop
         style="stop-color:#fff6d5;stop-opacity:1"
         offset="1"
         id="stop1556" />
    </linearGradient>
    <linearGradient
       id="linearGradient3155">
      <stop
         id="stop3157"
         style="stop-color:#000000;stop-opacity:1"
         offset="0" />
      <stop
         id="stop3171"
         style="stop-color:#c3c3c3;stop-opacity:1"
         offset="0.13482948" />
      <stop
         id="stop3173"
         style="stop-color:#8c8c8c;stop-opacity:1"
         offset="0.20224422" />
      <stop
         id="stop3163"
         style="stop-color:#ffffff;stop-opacity:1"
         offset="0.26965895" />
      <stop
         id="stop3165"
         style="stop-color:#757575;stop-opacity:1"
         offset="0.44650277" />
      <stop
         id="stop3167"
         style="stop-color:#7d7d7d;stop-opacity:1"
         offset="0.57114136" />
      <stop
         id="stop3169"
         style="stop-color:#b6b6b6;stop-opacity:1"
         offset="0.72038066" />
      <stop
         id="stop3159"
         style="stop-color:#000000;stop-opacity:1"
         offset="1" />
    </linearGradient>
    <linearGradient
       x1="23.575972"
       y1="25.356892"
       x2="23.575972"
       y2="31.210939"
       id="linearGradient3265"
       xlink:href="#linearGradient3155"
       gradientUnits="userSpaceOnUse"
       gradientTransform="matrix(1.1380152,-0.9770483,1.1678031,0.99272269,-100.21596,7.6916276)"
       spreadMethod="pad" />
    <linearGradient
       x1="30.037716"
       y1="24.989594"
       x2="30.037716"
       y2="30.000141"
       id="linearGradient3260"
       xlink:href="#linearGradient3240"
       gradientUnits="userSpaceOnUse"
       gradientTransform="matrix(1.1058451,-0.94942849,1.3667009,1.1618011,-103.97089,3.0454876)" />
    <linearGradient
       x1="30.037716"
       y1="24.989594"
       x2="30.037716"
       y2="30.000141"
       id="linearGradient3257"
       xlink:href="#linearGradient3223"
       gradientUnits="userSpaceOnUse"
       gradientTransform="matrix(1.1058451,-0.94942849,1.3667009,1.1618011,-104.28759,3.3173917)" />
    <linearGradient
       x1="30.037716"
       y1="24.989594"
       x2="30.037716"
       y2="30.000141"
       id="linearGradient3254"
       xlink:href="#linearGradient3240"
       gradientUnits="userSpaceOnUse"
       gradientTransform="matrix(1.1058451,-0.94942849,1.3667009,1.1618011,-102.87037,2.1006253)" />
    <linearGradient
       x1="30.037716"
       y1="24.989594"
       x2="30.037716"
       y2="30.000141"
       id="linearGradient3251"
       xlink:href="#linearGradient3223"
       gradientUnits="userSpaceOnUse"
       gradientTransform="matrix(1.1058451,-0.94942849,1.3667009,1.1618011,-103.18707,2.3725291)" />
    <linearGradient
       id="linearGradient3240">
      <stop
         id="stop3242"
         style="stop-color:#3e3e3e;stop-opacity:1"
         offset="0" />
      <stop
         id="stop3244"
         style="stop-color:#828282;stop-opacity:1"
         offset="0.5" />
      <stop
         id="stop3246"
         style="stop-color:#3c3c3c;stop-opacity:1"
         offset="1" />
    </linearGradient>
    <linearGradient
       x1="30.037716"
       y1="24.989594"
       x2="30.037716"
       y2="30.000141"
       id="linearGradient3248"
       xlink:href="#linearGradient3240"
       gradientUnits="userSpaceOnUse"
       gradientTransform="matrix(1.1058451,-0.94942849,1.3667009,1.1618011,-101.76452,1.1511972)" />
    <linearGradient
       id="linearGradient3223">
      <stop
         id="stop3225"
         style="stop-color:#999999;stop-opacity:1"
         offset="0" />
      <stop
         id="stop3231"
         style="stop-color:#ffffff;stop-opacity:1"
         offset="0.5" />
      <stop
         id="stop3227"
         style="stop-color:#777777;stop-opacity:1"
         offset="1" />
    </linearGradient>
    <linearGradient
       x1="30.037716"
       y1="24.989594"
       x2="30.037716"
       y2="30.000141"
       id="linearGradient3245"
       xlink:href="#linearGradient3223"
       gradientUnits="userSpaceOnUse"
       gradientTransform="matrix(1.1058451,-0.94942849,1.3667009,1.1618011,-102.08122,1.4231007)" />
    <linearGradient
       id="linearGradient3191">
      <stop
         id="stop3193"
         style="stop-color:#cbbd27;stop-opacity:1"
         offset="0" />
      <stop
         id="stop3195"
         style="stop-color:#9b901d;stop-opacity:1"
         offset="1" />
    </linearGradient>
    <linearGradient
       x1="5.5178981"
       y1="37.371799"
       x2="9.5220556"
       y2="41.391716"
       id="linearGradient3270"
       xlink:href="#linearGradient3191"
       gradientUnits="userSpaceOnUse"
       gradientTransform="matrix(0.92915607,0,0,0.7931815,-65.577416,-3.1653332)" />
    <linearGradient
       id="linearGradient3290">
      <stop
         id="stop3292"
         style="stop-color:#e4db7b;stop-opacity:1"
         offset="0" />
      <stop
         id="stop3294"
         style="stop-color:#f4f0c8;stop-opacity:1"
         offset="1" />
    </linearGradient>
    <linearGradient
       x1="9"
       y1="29.056757"
       x2="9"
       y2="26.02973"
       id="linearGradient3268"
       xlink:href="#linearGradient3290"
       gradientUnits="userSpaceOnUse"
       gradientTransform="matrix(1.1058451,-0.94942852,1.3667009,1.1618011,-104.3909,3.4060905)" />
    <linearGradient
       inkscape:collect="always"
       xlink:href="#linearGradient1558"
       id="linearGradient1560"
       x1="-69.351959"
       y1="65.041222"
       x2="-91.767036"
       y2="53.001579"
       gradientUnits="userSpaceOnUse"
       gradientTransform="matrix(2.316664,0,0,1.7590338,146.87297,26.085137)" />
    <linearGradient
       inkscape:collect="always"
       xlink:href="#linearGradient1748"
       id="linearGradient1742"
       gradientUnits="userSpaceOnUse"
       x1="-66.851242"
       y1="76.491158"
       x2="-97.867798"
       y2="46.426716"
       gradientTransform="matrix(2.316664,0,0,1.7590338,146.87297,26.085137)" />
    <linearGradient
       inkscape:collect="always"
       xlink:href="#linearGradient989"
       id="linearGradient1560-6"
       x1="-77.816475"
       y1="72.351761"
       x2="-97.109833"
       y2="48.045326"
       gradientUnits="userSpaceOnUse"
       gradientTransform="matrix(2.3264722,0,0,1.7819313,132.44045,45.535776)" />
    <linearGradient
       inkscape:collect="always"
       xlink:href="#linearGradient967"
       id="linearGradient1742-3"
       gradientUnits="userSpaceOnUse"
       x1="-67.611961"
       y1="76.320595"
       x2="-97.153915"
       y2="47.17136"
       gradientTransform="matrix(2.3264722,0,0,1.7819313,132.44045,45.535776)" />
    <linearGradient
       x1="32.036148"
       y1="19"
       x2="32.036148"
       y2="47.012184"
       id="linearGradient3326"
       xlink:href="#linearGradient3309-8"
       gradientUnits="userSpaceOnUse"
       gradientTransform="rotate(20.068981,71.536785,-17.885397)" />
    <linearGradient
       x1="63.9995"
       y1="3.1001"
       x2="63.9995"
       y2="122.8994"
       id="linearGradient3309-8"
       gradientUnits="userSpaceOnUse">
      <stop
         id="stop3311-4"
         style="stop-color:#f6f6f6;stop-opacity:1"
         offset="0" />
      <stop
         id="stop3313-8"
         style="stop-color:#d2d2d2;stop-opacity:1"
         offset="1" />
    </linearGradient>
    <linearGradient
       x1="25.922546"
       y1="19"
       x2="25.922546"
       y2="47.044857"
       id="linearGradient3328"
       xlink:href="#linearGradient3397-1"
       gradientUnits="userSpaceOnUse"
       gradientTransform="rotate(20.068981,71.536785,-17.885397)" />
    <linearGradient
       id="linearGradient3397-1">
      <stop
         id="stop3399-0"
         style="stop-color:#aaaaaa;stop-opacity:1"
         offset="0" />
      <stop
         id="stop3401-3"
         style="stop-color:#8c8c8c;stop-opacity:1"
         offset="1" />
    </linearGradient>
    <linearGradient
       x1="86.132919"
       y1="105.105"
       x2="84.63858"
       y2="20.895"
       id="linearGradient2868"
       xlink:href="#linearGradient5128-0"
       gradientUnits="userSpaceOnUse"
       gradientTransform="matrix(0.2014014,0,0,0.2014015,3.1103045,3.311705)" />
    <linearGradient
       id="linearGradient5128-0">
      <stop
         id="stop5130-4"
         style="stop-color:#ffffff;stop-opacity:1"
         offset="0" />
      <stop
         id="stop5132-4"
         style="stop-color:#959595;stop-opacity:1"
         offset="1" />
    </linearGradient>
    <linearGradient
       x1="34"
       y1="1"
       x2="34"
       y2="23.00024"
       id="linearGradient3218"
       xlink:href="#linearGradient3309-8"
       gradientUnits="userSpaceOnUse"
       gradientTransform="translate(-24.5)" />
    <linearGradient
       x1="40"
       y1="1"
       x2="40"
       y2="23.019524"
       id="linearGradient3228"
       xlink:href="#linearGradient3397-1"
       gradientUnits="userSpaceOnUse"
       gradientTransform="translate(-24.5)" />
    <linearGradient
       x1="86.132919"
       y1="105.105"
       x2="84.63858"
       y2="20.895"
       id="linearGradient3241"
       xlink:href="#linearGradient5128-6"
       gradientUnits="userSpaceOnUse"
       gradientTransform="matrix(0.1562313,0,0,0.1562313,2.0012016,2.1574324)" />
    <linearGradient
       id="linearGradient5128-6">
      <stop
         id="stop5130-43"
         style="stop-color:#eeeeee;stop-opacity:1"
         offset="0" />
      <stop
         id="stop5132-0"
         style="stop-color:#a2a2a2;stop-opacity:1"
         offset="1" />
    </linearGradient>
    <linearGradient
       x1="25"
       y1="0"
       x2="25"
       y2="16.000105"
       id="linearGradient3262"
       xlink:href="#linearGradient3309-6"
       gradientUnits="userSpaceOnUse"
       gradientTransform="translate(-17.058189)" />
    <linearGradient
       x1="63.9995"
       y1="3.1001"
       x2="63.9995"
       y2="122.8994"
       id="linearGradient3309-6"
       gradientUnits="userSpaceOnUse">
      <stop
         id="stop3311-2"
         style="stop-color:#f6f6f6;stop-opacity:1"
         offset="0" />
      <stop
         id="stop3313-9"
         style="stop-color:#cccccc;stop-opacity:1"
         offset="1" />
    </linearGradient>
    <linearGradient
       x1="21"
       y1="0"
       x2="21"
       y2="16.004715"
       id="linearGradient3264"
       xlink:href="#linearGradient3397-1"
       gradientUnits="userSpaceOnUse"
       gradientTransform="translate(-17.058189)" />
    <linearGradient
       x1="86.132919"
       y1="105.105"
       x2="84.63858"
       y2="20.895"
       id="linearGradient3260-6"
       xlink:href="#linearGradient5128-3"
       gradientUnits="userSpaceOnUse"
       gradientTransform="matrix(0.09614231,0,0,0.09614231,1.8468935,1.9430362)" />
    <linearGradient
       id="linearGradient5128-3">
      <stop
         id="stop5130-1"
         style="stop-color:#e5e5e5;stop-opacity:1"
         offset="0" />
      <stop
         id="stop5132-1"
         style="stop-color:#ababab;stop-opacity:1"
         offset="1" />
    </linearGradient>
    <linearGradient
       inkscape:collect="always"
       xlink:href="#linearGradient989"
       id="linearGradient1560-6-3"
       x1="-77.816475"
       y1="72.351761"
       x2="-97.109833"
       y2="48.045326"
       gradientUnits="userSpaceOnUse"
       gradientTransform="matrix(2.3248548,0,-2.727128e-8,1.7712295,114.54395,67.595573)" />
    <linearGradient
       inkscape:collect="always"
       xlink:href="#linearGradient967"
       id="linearGradient1742-3-5"
       gradientUnits="userSpaceOnUse"
       x1="-67.611961"
       y1="76.320595"
       x2="-97.153915"
       y2="47.17136"
       gradientTransform="matrix(2.3248548,0,-2.727128e-8,1.7712295,114.54395,67.595573)" />
  </defs>
  <metadata
     id="metadata3282">
    <rdf:RDF>
      <cc:Work
         rdf:about="">
        <dc:format>image/svg+xml</dc:format>
        <dc:type
           rdf:resource="http://purl.org/dc/dcmitype/StillImage" />
        <dc:title></dc:title>
      </cc:Work>
    </rdf:RDF>
  </metadata>
  <g
     id="g979"
     transform="matrix(2.503561,0,0,2.553807,-24.669645,-24.983211)">
    <g
       id="layer1-1"
       transform="matrix(1.3257346,0,0,1.2826203,20.788244,19.225547)">
      <path
         inkscape:connector-curvature="0"
         style="display:block;overflow:visible;visibility:visible;fill:url(#linearGradient3326);fill-opacity:1;fill-rule:nonzero;stroke:#828282;stroke-width:1;stroke-linecap:butt;stroke-linejoin:round;stroke-miterlimit:4;stroke-dasharray:none;stroke-dashoffset:0;stroke-opacity:1;marker:none;enable-background:accumulate"
         id="rect2576"
         d="m 18.636572,2.5905216 c -0.703275,-0.2569307 -1.495689,0.08705 -1.752619,0.7903248 l -0.600515,1.6437399 c -0.499176,-0.013219 -0.993955,0.00248 -1.484533,0.056512 L 14.072373,3.5181351 C 13.756758,2.8391668 12.960838,2.5483897 12.28187,2.864003 L 8.3651471,4.6602954 C 7.6861782,4.9759083 7.3954033,5.7718319 7.7110151,6.4507982 l 0.726532,1.5629636 C 8.0724464,8.359396 7.744193,8.7441155 7.4266456,9.141602 L 5.8122578,8.5518108 C 5.1089821,8.2948801 4.3165666,8.6388602 4.0596381,9.3421356 L 2.5797984,13.392781 c -0.2569313,0.703275 0.1271272,1.477063 0.8304007,1.733991 l 1.6143878,0.589791 c -0.013469,0.508577 -0.010523,1.014295 0.045789,1.513885 l -1.5629633,0.726533 c -0.6789688,0.315613 -0.9697472,1.111534 -0.654132,1.790502 l 1.8363684,3.898094 c 0.3156123,0.678968 1.1115366,0.969744 1.7905029,0.654132 l 1.5629636,-0.726532 c 0.3402133,0.357549 0.7083491,0.688501 1.0984877,1.000178 l -0.6005147,1.64374 c -0.2569313,0.703275 0.1271291,1.477064 0.8304008,1.733991 l 4.0212927,1.469116 c 0.703276,0.256931 1.466338,-0.09777 1.723267,-0.801048 l 0.600515,-1.64374 c 0.508577,0.01347 1.014295,0.01052 1.513885,-0.04579 l 0.726532,1.562963 c 0.315614,0.678968 1.111534,0.969745 1.790502,0.654132 l 3.916723,-1.796292 c 0.678969,-0.315613 0.969742,-1.111538 0.654132,-1.790503 l -0.745161,-1.603039 c 0.357549,-0.340214 0.6885,-0.708349 1.000178,-1.098488 l 1.64374,0.600515 c 0.703276,0.25693 1.466338,-0.09778 1.723267,-0.801049 l 1.47984,-4.050645 c 0.256931,-0.703275 -0.09778,-1.466339 -0.801048,-1.723268 l -1.64374,-0.600514 c 0.01322,-0.499176 -0.0025,-0.993955 -0.05651,-1.484533 l 1.60304,-0.745162 C 29.20091,13.73813 29.491686,12.942208 29.176073,12.26324 L 27.339704,8.365146 C 27.024092,7.6861784 26.228168,7.3954 25.549202,7.711014 L 23.986239,8.4375465 C 23.640605,8.0724458 23.255886,7.7441924 22.858399,7.4266449 L 23.458914,5.782905 C 23.715845,5.0796306 23.361136,4.3165668 22.657865,4.0596378 Z M 17.20103,12.71252 c 1.81469,0.662968 2.74942,2.67382 2.086452,4.48851 -0.662969,1.814689 -2.673821,2.749419 -4.48851,2.086451 -1.814691,-0.662969 -2.74942,-2.673821 -2.086452,-4.48851 0.662968,-1.81469 2.673821,-2.74942 4.48851,-2.086451 z" />
      <path
         inkscape:connector-curvature="0"
         style="opacity:0.05;fill:#000000;fill-opacity:1;stroke:none"
         id="path3315"
         d="m 16.000001,7.9999996 c -4.411273,0 -7.9999985,3.5887274 -7.9999985,8.0000004 0,4.411274 3.5887255,8 7.9999985,8 C 20.411274,24 24,20.411274 24,16 24,11.588727 20.411274,7.9999996 16.000001,7.9999996 Z m 0,3.6923094 c 2.377844,0 4.307693,1.929846 4.307693,4.307691 0,2.377847 -1.929849,4.307693 -4.307693,4.307693 -2.377846,0 -4.307691,-1.929846 -4.307691,-4.307693 0,-2.377845 1.929845,-4.307691 4.307691,-4.307691 z" />
      <path
         inkscape:connector-curvature="0"
         style="fill:none;stroke:url(#linearGradient2868);stroke-width:1;stroke-miterlimit:4;stroke-dasharray:none"
         id="path28"
         d="m 16.000001,7.6206906 c -4.620353,0 -8.3793085,3.7589574 -8.3793085,8.3793084 0,4.620352 3.7589555,8.37931 8.3793085,8.37931 4.620353,0 8.379309,-3.758958 8.379309,-8.37931 0,-4.620351 -3.758956,-8.3793084 -8.379309,-8.3793084 z" />
    </g>
  </g>
  <g
     id="g2486"
     transform="matrix(2.5778101,0,0,2.505016,-0.97022606,-0.74776194)">
    <path
       inkscape:connector-curvature="0"
       style="display:block;overflow:visible;visibility:visible;fill:url(#linearGradient3218);fill-opacity:1;fill-rule:nonzero;stroke:#828282;stroke-width:1;stroke-linecap:butt;stroke-linejoin:round;stroke-miterlimit:4;stroke-dasharray:none;stroke-dashoffset:0;stroke-opacity:1;marker:none;enable-background:accumulate"
       id="rect2426"
       d="M 10.1875,1.5 C 9.799134,1.5 9.5,1.7991339 9.5,2.1875 V 3.875 C 8.988333,4.0322247 8.496816,4.2537684 8.03125,4.5 L 6.84375,3.3125 c -0.274616,-0.2746162 -0.725384,-0.2746162 -1,0 L 3.3125,5.84375 c -0.274616,0.2746162 -0.274616,0.7253836 0,1 L 4.5,8.03125 C 4.253769,8.4968155 4.032225,8.9883329 3.875,9.5 H 2.1875 C 1.799134,9.5 1.5,9.7991344 1.5,10.1875 v 3.625 C 1.5,14.200866 1.799134,14.5 2.1875,14.5 H 3.875 c 0.157225,0.511667 0.378769,1.003185 0.625,1.46875 l -1.1875,1.1875 c -0.274616,0.274616 -0.274616,0.725384 0,1 l 2.53125,2.53125 c 0.274616,0.274616 0.725384,0.274616 1,0 L 8.03125,19.5 C 8.496816,19.746232 8.988333,19.967775 9.5,20.125 v 1.6875 c 0,0.388366 0.299135,0.6875 0.6875,0.6875 h 3.625 C 14.200866,22.5 14.5,22.200866 14.5,21.8125 V 20.125 c 0.511667,-0.157225 1.003185,-0.378768 1.46875,-0.625 l 1.1875,1.1875 c 0.274616,0.274616 0.725384,0.274616 1,0 l 2.53125,-2.53125 c 0.274616,-0.274616 0.274616,-0.725384 0,-1 L 19.5,15.96875 C 19.746232,15.503185 19.967775,15.011667 20.125,14.5 h 1.6875 c 0.388366,0 0.6875,-0.299134 0.6875,-0.6875 v -3.625 C 22.5,9.7991341 22.200866,9.5 21.8125,9.5 H 20.125 C 19.967775,8.9883329 19.746232,8.4968155 19.5,8.03125 l 1.1875,-1.1875 c 0.274616,-0.2746162 0.274616,-0.7253837 0,-1 L 18.15625,3.3125 c -0.274616,-0.2746162 -0.725384,-0.2746162 -1,0 L 15.96875,4.5 C 15.503185,4.2537684 15.011667,4.0322247 14.5,3.875 V 2.1875 C 14.5,1.7991341 14.200866,1.5 13.8125,1.5 Z M 12,9 c 1.656,0 3,1.344 3,3 0,1.656 -1.344,3 -3,3 -1.656,0 -3,-1.344 -3,-3 0,-1.656 1.344,-3 3,-3 z" />
    <path
       inkscape:connector-curvature="0"
       style="opacity:0.05;fill:#000000;fill-opacity:1;stroke:none"
       id="path3315-9"
       d="m 12,6 c -3.3084557,-2e-7 -5.9999999,2.6915446 -5.9999999,6 0,3.308455 2.6915442,6 5.9999999,6 3.308455,-1e-6 6,-2.691545 6,-6 0,-3.3084554 -2.691545,-6 -6,-6 z m 0,2.7692308 c 1.783385,0 3.230769,1.4473842 3.230769,3.2307692 0,1.783385 -1.447384,3.230769 -3.230769,3.230769 -1.783385,0 -3.2307692,-1.447384 -3.2307692,-3.230769 0,-1.783385 1.4473842,-3.2307692 3.2307692,-3.2307692 z" />
    <path
       inkscape:connector-curvature="0"
       style="fill:none;stroke:url(#linearGradient3241);stroke-width:1;stroke-miterlimit:4;stroke-dasharray:none"
       id="path28-2"
       d="m 11.999999,5.4999995 c -3.5840997,0 -6.4999994,2.9158997 -6.4999994,6.4999995 C 5.4999996,15.5841 8.4158993,18.5 11.999999,18.5 15.584101,18.5 18.5,15.5841 18.5,11.999999 18.5,8.4158992 15.584101,5.4999995 11.999999,5.4999995 Z" />
  </g>
  <g
     transform="matrix(3.1410339,0,0,3.2097778,1.0956809,76.201844)"
     id="layer1-0">
    <g
       id="g2479">
      <path
         d="M 6.9375,0.5 C 6.6890831,0.5 6.5,0.68908218 6.5,0.9375 v 1.25 C 5.9460971,2.3297005 5.448836,2.5593783 4.96875,2.84375 L 4.0625,1.9375 c -0.1756569,-0.1756579 -0.449342,-0.1756579 -0.625,0 l -1.5,1.5 c -0.175657,0.1756579 -0.175657,0.4493421 0,0.625 L 2.84375,4.96875 C 2.5593789,5.4488356 2.329701,5.9460968 2.1875,6.5 h -1.25 C 0.68908301,6.5 0.5,6.6890821 0.5,6.9375 v 2.125 c 1e-8,0.2484178 0.189083,0.4375 0.4375,0.4375 h 1.25 c 0.1422009,0.553903 0.371879,1.051164 0.65625,1.53125 L 1.9375,11.9375 c -0.175657,0.175658 -0.175657,0.449342 0,0.625 l 1.5,1.5 c 0.1756579,0.175658 0.449342,0.175658 0.625,0 L 4.96875,13.15625 C 5.4488361,13.440622 5.946097,13.6703 6.5,13.8125 v 1.25 c 1e-7,0.248418 0.189083,0.4375 0.4375,0.4375 h 2.125 C 9.3109176,15.5 9.5,15.310918 9.5,15.0625 v -1.25 c 0.553903,-0.1422 1.051164,-0.371878 1.53125,-0.65625 l 0.90625,0.90625 c 0.175658,0.175658 0.449342,0.175658 0.625,0 l 1.5,-1.5 c 0.175658,-0.175658 0.175658,-0.449342 0,-0.625 L 13.15625,11.03125 C 13.440622,10.551164 13.6703,10.053903 13.8125,9.5 h 1.25 C 15.310918,9.5 15.5,9.3109174 15.5,9.0625 V 6.9375 C 15.5,6.6890822 15.310917,6.5 15.0625,6.5 h -1.25 C 13.6703,5.9460968 13.440622,5.4488356 13.15625,4.96875 L 14.0625,4.0625 c 0.175658,-0.1756579 0.175658,-0.449342 0,-0.625 l -1.5,-1.5 c -0.175658,-0.1756579 -0.449342,-0.1756579 -0.625,0 L 11.03125,2.84375 C 10.551164,2.5593783 10.053903,2.3297005 9.5,2.1875 v -1.25 C 9.4999996,0.68908218 9.310918,0.5 9.0625,0.5 Z M 8,6 c 1.104,0 2,0.896 2,2 0,1.104 -0.896,2 -2,2 C 6.896,10 6,9.104 6,8 6,6.896 6.896,6 8,6 Z"
         id="path2426"
         style="display:block;overflow:visible;visibility:visible;fill:url(#linearGradient3262);fill-opacity:1;fill-rule:nonzero;stroke:#828282;stroke-width:0.99999994;stroke-linecap:butt;stroke-linejoin:round;stroke-miterlimit:4;stroke-dasharray:none;stroke-dashoffset:0;stroke-opacity:1;marker:none;enable-background:accumulate"
         inkscape:connector-curvature="0" />
      <path
         d="M 8,3.465116 C 5.4994229,3.465116 3.4651163,5.499423 3.4651163,8 3.4651163,10.500577 5.4994229,12.534884 8,12.534884 10.500576,12.534883 12.534884,10.500577 12.534884,8 12.534884,5.499423 10.500576,3.465116 8,3.465116 Z M 8,5.55814 c 1.347907,0 2.44186,1.093953 2.44186,2.44186 0,1.347907 -1.093953,2.44186 -2.44186,2.44186 C 6.652093,10.44186 5.5581395,9.347907 5.5581395,8 5.5581395,6.652093 6.652093,5.55814 8,5.55814 Z"
         id="path3315-3"
         style="opacity:0.05;fill:#000000;fill-opacity:1;stroke:none"
         inkscape:connector-curvature="0" />
      <path
         d="M 8.0000001,4 C 5.7943997,4 3.9999999,5.7944001 3.9999999,8.0000008 3.9999999,10.2056 5.7943997,12 8.0000001,12 10.2056,12 12,10.2056 12,8.0000008 12,5.7944001 10.2056,4 8.0000001,4 Z"
         id="path28-4"
         style="fill:none;stroke:url(#linearGradient3260-6);stroke-width:1;stroke-miterlimit:4;stroke-dasharray:none"
         inkscape:connector-curvature="0" />
    </g>
  </g>
  <rect
     style="fill:url(#linearGradient1560-6-3);fill-opacity:1;stroke:url(#linearGradient1742-3-5);stroke-width:5.12007618;stroke-linejoin:miter;stroke-miterlimit:4;stroke-dasharray:none;stroke-opacity:1;paint-order:markers fill stroke"
     id="rect1552-2-6"
     width="72.526634"
     height="54.379406"
     x="-112.98447"
     y="149.82793"
     transform="matrix(1,0,0.79076256,0.61212301,0,0)"
     inkscape:transform-center-x="32.751803"
     inkscape:transform-center-y="-9.2724179" />
  <rect
     style="fill:url(#linearGradient1560-6);fill-opacity:1;stroke:url(#linearGradient1742-3);stroke-width:5.13730764;stroke-linejoin:miter;stroke-miterlimit:4;stroke-dasharray:none;stroke-opacity:1;paint-order:markers fill stroke"
     id="rect1552-2"
     width="72.577103"
     height="54.707966"
     x="-95.246239"
     y="128.26498"
     transform="matrix(1,0,0.78656027,0.61751352,0,0)"
     inkscape:transform-center-x="32.774569"
     inkscape:transform-center-y="-9.4105857" />
  <rect
     style="opacity:1;fill:url(#linearGradient1560);fill-opacity:1;stroke:url(#linearGradient1742);stroke-width:5.40066051;stroke-linejoin:miter;stroke-miterlimit:4;stroke-dasharray:none;stroke-opacity:1;paint-order:markers fill stroke"
     id="rect1552"
     width="72.271133"
     height="54.004974"
     x="-79.853867"
     y="107.75131"
     transform="matrix(1,0,0.79343963,0.60864895,0,0)"
     clip-path="none" />
  <rect
     style="opacity:1;fill:#fffcf7;fill-opacity:1;stroke:#595959;stroke-width:2.90656686;stroke-linejoin:round;stroke-miterlimit:4;stroke-dasharray:none;stroke-opacity:1"
     id="rect1016"
     width="39.229183"
     height="14.920592"
     x="-38.439186"
     y="93.081497"
     ry="7.4602962"
     transform="matrix(1,0,0.66406327,0.74767638,0,0)" />
  <g
     id="g1014"
     transform="matrix(1.8454194,0,0,2.1167629,161.72318,6.3903447)">
    <path
       d="m -57.912702,21.954701 c 0.764768,-0.502438 2.798256,0.312112 4.626271,1.866066 1.823643,1.550235 2.740098,3.247247 2.164524,3.906635 -0.0022,0.0025 0.04494,0.03383 0.04271,0.03631 L -23.329395,3.9389849 c 0.704545,-0.6048904 -0.252072,-2.398995 -2.13812,-4.00228001 -1.886046,-1.60328559 -3.990838,-2.41161969 -4.695387,-1.80672589 z"
       id="rect2383"
       style="fill:url(#linearGradient3265);fill-opacity:1;stroke:#000000;stroke-width:0.79534459;stroke-linecap:butt;stroke-linejoin:round;stroke-miterlimit:4;stroke-dasharray:none;stroke-dashoffset:0;stroke-opacity:1"
       inkscape:connector-curvature="0" />
    <path
       d="m -33.549551,1.0376041 c 0.764767,-0.50243899 2.798256,0.3121114 4.626271,1.8660651 1.823642,1.5502351 2.740098,3.2472458 2.164523,3.9066341 -0.0022,0.00251 0.04494,0.033828 0.04271,0.036307 l 3.386652,-2.9076249 0.06912,-0.05934 c 0.0023,-0.00248 -0.0449,-0.033798 -0.04271,-0.036307 0.575569,-0.6593863 -0.340886,-2.3563976 -2.164529,-3.90663331 -1.828014,-1.55395309 -3.861503,-2.36850469 -4.62627,-1.86606569 l -0.06912,0.059339 -3.386648,2.9076251 z"
       id="rect3175"
       style="opacity:0.8;fill:#ff9de8;fill-opacity:1;stroke:#dd78c5;stroke-width:0.79534459;stroke-linecap:butt;stroke-linejoin:round;stroke-miterlimit:4;stroke-dasharray:none;stroke-dashoffset:0;stroke-opacity:1"
       inkscape:connector-curvature="0" />
    <path
       d="m -57.912702,21.954701 c 0.764768,-0.502438 2.798256,0.312112 4.626271,1.866066 1.823643,1.550235 2.740098,3.247247 2.164524,3.906635 -0.0022,0.0025 0.04494,0.03383 0.04271,0.03631 l 19.110385,-16.407311 0.06912,-0.05934 c 0.0023,-0.0025 -0.04489,-0.0338 -0.04271,-0.03631 0.575573,-0.659389 -0.340882,-2.3563991 -2.164525,-3.9066347 -1.828014,-1.5539529 -3.861504,-2.3685039 -4.626271,-1.8660645 l -0.06912,0.059336 L -57.912704,21.9547 Z"
       id="path3208"
       style="opacity:0.6;fill:#000000;fill-opacity:1;stroke:none;stroke-width:0.87673849"
       inkscape:connector-curvature="0" />
    <path
       d="m -37.345575,4.296698 c 0.764767,-0.5024396 2.798257,0.3121111 4.626271,1.8660648 1.823643,1.5502356 2.740098,3.2472466 2.164523,3.9066352 -0.0022,0.0025 0.04494,0.03383 0.04271,0.03631 l 0.345577,-0.2966977 c 0.0023,-0.00251 -0.04489,-0.033795 -0.04271,-0.036307 C -29.63363,9.113315 -30.550084,7.4163031 -32.373729,5.8660699 -34.201743,4.3121119 -36.235232,3.4975603 -37,4 l -0.345576,0.2966972 z"
       id="path3233"
       style="fill:url(#linearGradient3260);fill-opacity:1;stroke:none;stroke-width:0.87673849"
       inkscape:connector-curvature="0" />
    <path
       d="m -37.662274,4.5686014 c 0.764768,-0.5024394 2.798257,0.3121108 4.626271,1.8660653 1.823644,1.5502348 2.740099,3.2472451 2.164524,3.9066323 -0.0022,0.0025 0.04494,0.03383 0.04271,0.03631 l 0.345577,-0.296697 c 0.0023,-0.0025 -0.0449,-0.0338 -0.04271,-0.03631 0.575573,-0.6593882 -0.340881,-2.3563993 -2.164526,-3.906634 -1.828013,-1.5539538 -3.861503,-2.3685055 -4.626272,-1.8660659 z"
       id="path3216"
       style="fill:url(#linearGradient3257);fill-opacity:1;stroke:none;stroke-width:0.87673849"
       inkscape:connector-curvature="0" />
    <path
       d="m -36.245048,3.3518359 c 0.764766,-0.5024396 2.798257,0.3121108 4.62627,1.8660655 1.823642,1.5502347 2.740098,3.247245 2.164525,3.9066341 -0.0022,0.00251 0.04494,0.033828 0.04271,0.036307 l 0.345577,-0.2966964 c 0.0023,-0.00251 -0.04489,-0.033795 -0.04271,-0.036306 0.575575,-0.6593875 -0.34088,-2.3563986 -2.164526,-3.9066334 -1.828012,-1.5539544 -3.8615,-2.3685054 -4.62627,-1.8660657 z"
       id="path3248"
       style="fill:url(#linearGradient3254);fill-opacity:1;stroke:none;stroke-width:0.87673849"
       inkscape:connector-curvature="0" />
    <path
       d="m -36.561747,3.6237394 c 0.764767,-0.5024401 2.798257,0.3121108 4.62627,1.8660643 1.823644,1.5502364 2.740099,3.2472458 2.164525,3.9066342 -0.0022,0.00251 0.04494,0.033828 0.04271,0.036306 l 0.345577,-0.2966988 c 0.0023,-0.00251 -0.04489,-0.033795 -0.04271,-0.036306 0.575575,-0.6593884 -0.340879,-2.3564002 -2.164524,-3.9066334 -1.828012,-1.553954 -3.861503,-2.3685056 -4.626271,-1.8660654 l -0.345576,0.2966967 z"
       id="path3250"
       style="fill:url(#linearGradient3251);fill-opacity:1;stroke:none;stroke-width:0.87673849"
       inkscape:connector-curvature="0" />
    <path
       d="m -35.139203,2.4024072 c 0.764766,-0.502439 2.798255,0.3121115 4.626269,1.866065 1.823644,1.5502363 2.7401,3.2472465 2.164525,3.906634 -0.0022,0.00251 0.04494,0.033828 0.04271,0.036307 l 0.345577,-0.2966964 c 0.0023,-0.00251 -0.04489,-0.033803 -0.04271,-0.036306 0.575574,-0.6593884 -0.34088,-2.3563994 -2.164525,-3.9066346 -1.828012,-1.5539536 -3.861502,-2.3685046 -4.62627,-1.8660651 z"
       id="path3256"
       style="fill:url(#linearGradient3248);fill-opacity:1;stroke:none;stroke-width:0.87673849"
       inkscape:connector-curvature="0" />
    <path
       d="m -35.455903,2.6743102 c 0.764767,-0.5024397 2.798257,0.3121114 4.626271,1.8660656 1.823643,1.550235 2.740099,3.247246 2.164524,3.9066336 -0.0022,0.00251 0.04494,0.033828 0.04271,0.036306 l 0.345577,-0.2966963 c 0.0023,-0.00251 -0.0449,-0.033803 -0.04271,-0.036307 0.575574,-0.6593891 -0.340881,-2.3564002 -2.164525,-3.9066347 -1.828013,-1.5539537 -3.861503,-2.3685053 -4.62627,-1.8660645 l -0.345577,0.2966956 z"
       id="path3258"
       style="fill:url(#linearGradient3245);fill-opacity:1;stroke:none;stroke-width:0.87673849"
       inkscape:connector-curvature="0" />
    <path
       d="m -63.53162,32.482064 12.312914,-4.664568 0.107536,-0.09191 c 0.575574,-0.659387 -0.353968,-2.356052 -2.177611,-3.906288 -1.828015,-1.553954 -3.859296,-2.36367 -4.624064,-1.861231 z"
       id="path3270"
       style="fill:url(#linearGradient3268);fill-opacity:1;fill-rule:evenodd;stroke:url(#linearGradient3270);stroke-width:0.79534465;stroke-linecap:butt;stroke-linejoin:miter;stroke-miterlimit:4;stroke-dasharray:none;stroke-opacity:1"
       inkscape:connector-curvature="0" />
    <path
       d="m -62.009663,29.631722 -1.52214,2.839307 3.358644,-1.278137 c -0.250834,-0.261043 -0.481132,-0.527091 -0.785072,-0.785464 -0.349917,-0.297457 -0.696798,-0.536487 -1.051432,-0.775706 z"
       id="path3281"
       style="fill:#000000;fill-opacity:1;fill-rule:evenodd;stroke:#000000;stroke-width:0.79534459;stroke-linecap:butt;stroke-linejoin:miter;stroke-miterlimit:4;stroke-dasharray:none;stroke-opacity:1"
       inkscape:connector-curvature="0" />
  </g>
</svg>
