<?xml version="1.0" encoding="UTF-8" standalone="no"?>
<svg
   xmlns:osb="http://www.openswatchbook.org/uri/2009/osb"
   xmlns:dc="http://purl.org/dc/elements/1.1/"
   xmlns:cc="http://creativecommons.org/ns#"
   xmlns:rdf="http://www.w3.org/1999/02/22-rdf-syntax-ns#"
   xmlns:svg="http://www.w3.org/2000/svg"
   xmlns="http://www.w3.org/2000/svg"
   xmlns:xlink="http://www.w3.org/1999/xlink"
   xmlns:sodipodi="http://sodipodi.sourceforge.net/DTD/sodipodi-0.dtd"
   xmlns:inkscape="http://www.inkscape.org/namespaces/inkscape"
   version="1.1"
   width="16"
   height="16"
   id="svg3277"
   sodipodi:docname="io.github.jeremypw.bulk-renamer-16.svg"
   inkscape:version="0.92.5 (2060ec1f9f, 2020-04-08)">
  <sodipodi:namedview
     pagecolor="#ffffff"
     bordercolor="#666666"
     borderopacity="1"
     objecttolerance="1"
     gridtolerance="1"
     guidetolerance="1"
     inkscape:pageopacity="0"
     inkscape:pageshadow="2"
     inkscape:window-width="1864"
     inkscape:window-height="1009"
     id="namedview1273"
     showgrid="true"
     inkscape:zoom="25.3125"
     inkscape:cx="10.446043"
     inkscape:cy="4.4057677"
     inkscape:window-x="56"
     inkscape:window-y="34"
     inkscape:window-maximized="1"
     inkscape:current-layer="svg3277"
     inkscape:snap-path-clip="true"
     showguides="false">
    <inkscape:grid
       type="xygrid"
       id="grid1767"
       snapvisiblegridlinesonly="false" />
  </sodipodi:namedview>
  <defs
     id="defs3279">
    <marker
       inkscape:stockid="Arrow1Lstart"
       orient="auto"
       refY="0"
       refX="0"
       id="Arrow1Lstart"
       style="overflow:visible"
       inkscape:isstock="true">
      <path
         id="path1413"
         d="M 0,0 5,-5 -12.5,0 5,5 Z"
         style="fill-rule:evenodd;stroke:#000000;stroke-width:1.00000003pt"
         transform="matrix(0.8,0,0,0.8,10,0)"
         inkscape:connector-curvature="0" />
    </marker>
    <linearGradient
       id="linearGradient1370"
       osb:paint="gradient">
      <stop
         style="stop-color:#180297;stop-opacity:1"
         offset="0"
         id="stop1366" />
      <stop
         style="stop-color:#cdc9ef;stop-opacity:0.94117647"
         offset="1"
         id="stop1368" />
    </linearGradient>
    <linearGradient
       id="linearGradient1360"
       osb:paint="solid">
      <stop
         style="stop-color:#000000;stop-opacity:1;"
         offset="0"
         id="stop1358" />
    </linearGradient>
    <linearGradient
       id="linearGradient3155"
       osb:paint="gradient">
      <stop
         id="stop3157"
         style="stop-color:#000000;stop-opacity:1;"
         offset="0" />
      <stop
         id="stop3171"
         style="stop-color:#c3c3c3;stop-opacity:1"
         offset="0.13482948" />
      <stop
         id="stop3173"
         style="stop-color:#8c8c8c;stop-opacity:1"
         offset="0.20224422" />
      <stop
         id="stop3163"
         style="stop-color:#ffffff;stop-opacity:1"
         offset="0.26965895" />
      <stop
         id="stop3165"
         style="stop-color:#757575;stop-opacity:1"
         offset="0.44650277" />
      <stop
         id="stop3167"
         style="stop-color:#7d7d7d;stop-opacity:1"
         offset="0.57114136" />
      <stop
         id="stop3169"
         style="stop-color:#b6b6b6;stop-opacity:1"
         offset="0.72038066" />
      <stop
         id="stop3159"
         style="stop-color:#000000;stop-opacity:1"
         offset="1" />
    </linearGradient>
    <linearGradient
       x1="23.575972"
       y1="25.356892"
       x2="23.575972"
       y2="31.210939"
       id="linearGradient3265"
       xlink:href="#linearGradient3155"
       gradientUnits="userSpaceOnUse"
       gradientTransform="matrix(2.0681796,2.1001153,-2.1013586,2.1550865,85.335548,-61.869567)"
       spreadMethod="pad" />
    <linearGradient
       x1="30.037716"
       y1="24.989594"
       x2="30.037716"
       y2="30.000141"
       id="linearGradient3260"
       xlink:href="#linearGradient3240"
       gradientUnits="userSpaceOnUse"
       gradientTransform="matrix(0.32844893,0.33771102,-0.40191793,0.41737307,14.144261,-9.5389235)" />
    <linearGradient
       x1="30.037716"
       y1="24.989594"
       x2="30.037716"
       y2="30.000141"
       id="linearGradient3257"
       xlink:href="#linearGradient3223"
       gradientUnits="userSpaceOnUse"
       gradientTransform="matrix(0.32844893,0.33771102,-0.40191793,0.41737307,14.050198,-9.6356398)" />
    <linearGradient
       x1="30.037716"
       y1="24.989594"
       x2="30.037716"
       y2="30.000141"
       id="linearGradient3254"
       xlink:href="#linearGradient3240"
       gradientUnits="userSpaceOnUse"
       gradientTransform="matrix(0.32844893,0.33771102,-0.40191793,0.41737307,14.471131,-9.2028387)" />
    <linearGradient
       x1="30.037716"
       y1="24.989594"
       x2="30.037716"
       y2="30.000141"
       id="linearGradient3251"
       xlink:href="#linearGradient3223"
       gradientUnits="userSpaceOnUse"
       gradientTransform="matrix(0.32844893,0.33771102,-0.40191793,0.41737307,14.377067,-9.299555)" />
    <linearGradient
       id="linearGradient3240">
      <stop
         id="stop3242"
         style="stop-color:#3e3e3e;stop-opacity:1"
         offset="0" />
      <stop
         id="stop3244"
         style="stop-color:#828282;stop-opacity:1"
         offset="0.5" />
      <stop
         id="stop3246"
         style="stop-color:#3c3c3c;stop-opacity:1"
         offset="1" />
    </linearGradient>
    <linearGradient
       x1="30.037716"
       y1="24.989594"
       x2="30.037716"
       y2="30.000141"
       id="linearGradient3248"
       xlink:href="#linearGradient3240"
       gradientUnits="userSpaceOnUse"
       gradientTransform="matrix(0.32844893,0.33771102,-0.40191793,0.41737307,14.799579,-8.8651262)" />
    <linearGradient
       id="linearGradient3223">
      <stop
         id="stop3225"
         style="stop-color:#999999;stop-opacity:1"
         offset="0" />
      <stop
         id="stop3231"
         style="stop-color:#ffffff;stop-opacity:1"
         offset="0.5" />
      <stop
         id="stop3227"
         style="stop-color:#777777;stop-opacity:1"
         offset="1" />
    </linearGradient>
    <linearGradient
       x1="30.037716"
       y1="24.989594"
       x2="30.037716"
       y2="30.000141"
       id="linearGradient3245"
       xlink:href="#linearGradient3223"
       gradientUnits="userSpaceOnUse"
       gradientTransform="matrix(0.32844893,0.33771102,-0.40191793,0.41737307,14.705516,-8.9618425)" />
    <linearGradient
       id="linearGradient3191">
      <stop
         id="stop3193"
         style="stop-color:#cbbd27;stop-opacity:1"
         offset="0" />
      <stop
         id="stop3195"
         style="stop-color:#9b901d;stop-opacity:1"
         offset="1" />
    </linearGradient>
    <linearGradient
       x1="5.5178981"
       y1="37.371799"
       x2="9.5220556"
       y2="41.391716"
       id="linearGradient3270"
       xlink:href="#linearGradient3191"
       gradientUnits="userSpaceOnUse"
       gradientTransform="matrix(0,0.28375243,-0.27439625,0,16.233598,2.177709)" />
    <linearGradient
       id="linearGradient3290">
      <stop
         id="stop3292"
         style="stop-color:#e4db7b;stop-opacity:1"
         offset="0" />
      <stop
         id="stop3294"
         style="stop-color:#f4f0c8;stop-opacity:1"
         offset="1" />
    </linearGradient>
    <linearGradient
       x1="9"
       y1="29.056757"
       x2="9"
       y2="26.02973"
       id="linearGradient3268"
       xlink:href="#linearGradient3290"
       gradientUnits="userSpaceOnUse"
       gradientTransform="matrix(0.32844894,0.33771102,-0.40191793,0.41737307,13.960254,-9.675435)" />
    <linearGradient
       x1="32.036148"
       y1="19"
       x2="32.036148"
       y2="47.012184"
       id="linearGradient3326"
       xlink:href="#linearGradient3309-8"
       gradientUnits="userSpaceOnUse"
       gradientTransform="rotate(20.068981,71.536785,-17.885397)" />
    <linearGradient
       x1="63.9995"
       y1="3.1001"
       x2="63.9995"
       y2="122.8994"
       id="linearGradient3309-8"
       gradientUnits="userSpaceOnUse">
      <stop
         id="stop3311-4"
         style="stop-color:#f6f6f6;stop-opacity:1"
         offset="0" />
      <stop
         id="stop3313-8"
         style="stop-color:#d2d2d2;stop-opacity:1"
         offset="1" />
    </linearGradient>
    <linearGradient
       x1="25.922546"
       y1="19"
       x2="25.922546"
       y2="47.044857"
       id="linearGradient3328"
       xlink:href="#linearGradient3397-1"
       gradientUnits="userSpaceOnUse"
       gradientTransform="rotate(20.068981,71.536785,-17.885397)" />
    <linearGradient
       id="linearGradient3397-1">
      <stop
         id="stop3399-0"
         style="stop-color:#aaaaaa;stop-opacity:1"
         offset="0" />
      <stop
         id="stop3401-3"
         style="stop-color:#8c8c8c;stop-opacity:1"
         offset="1" />
    </linearGradient>
    <linearGradient
       x1="86.132919"
       y1="105.105"
       x2="84.63858"
       y2="20.895"
       id="linearGradient2868"
       xlink:href="#linearGradient5128-0"
       gradientUnits="userSpaceOnUse"
       gradientTransform="matrix(0.2014014,0,0,0.2014015,3.1103045,3.311705)" />
    <linearGradient
       id="linearGradient5128-0">
      <stop
         id="stop5130-4"
         style="stop-color:#ffffff;stop-opacity:1"
         offset="0" />
      <stop
         id="stop5132-4"
         style="stop-color:#959595;stop-opacity:1"
         offset="1" />
    </linearGradient>
    <linearGradient
       x1="34"
       y1="1"
       x2="34"
       y2="23.00024"
       id="linearGradient3218"
       xlink:href="#linearGradient3309-8"
       gradientUnits="userSpaceOnUse"
       gradientTransform="translate(-24.5)" />
    <linearGradient
       x1="40"
       y1="1"
       x2="40"
       y2="23.019524"
       id="linearGradient3228"
       xlink:href="#linearGradient3397-1"
       gradientUnits="userSpaceOnUse"
       gradientTransform="translate(-24.5)" />
    <linearGradient
       x1="86.132919"
       y1="105.105"
       x2="84.63858"
       y2="20.895"
       id="linearGradient3241"
       xlink:href="#linearGradient5128-6"
       gradientUnits="userSpaceOnUse"
       gradientTransform="matrix(0.1562313,0,0,0.1562313,2.0012016,2.1574324)" />
    <linearGradient
       id="linearGradient5128-6">
      <stop
         id="stop5130-43"
         style="stop-color:#eeeeee;stop-opacity:1"
         offset="0" />
      <stop
         id="stop5132-0"
         style="stop-color:#a2a2a2;stop-opacity:1"
         offset="1" />
    </linearGradient>
    <linearGradient
       x1="25"
       y1="0"
       x2="25"
       y2="16.000105"
       id="linearGradient3262"
       xlink:href="#linearGradient3309-6"
       gradientUnits="userSpaceOnUse"
       gradientTransform="translate(-17.058189)" />
    <linearGradient
       x1="63.9995"
       y1="3.1001"
       x2="63.9995"
       y2="122.8994"
       id="linearGradient3309-6"
       gradientUnits="userSpaceOnUse">
      <stop
         id="stop3311-2"
         style="stop-color:#f6f6f6;stop-opacity:1"
         offset="0" />
      <stop
         id="stop3313-9"
         style="stop-color:#cccccc;stop-opacity:1"
         offset="1" />
    </linearGradient>
    <linearGradient
       x1="21"
       y1="0"
       x2="21"
       y2="16.004715"
       id="linearGradient3264"
       xlink:href="#linearGradient3397-1"
       gradientUnits="userSpaceOnUse"
       gradientTransform="translate(-17.058189)" />
    <linearGradient
       x1="86.132919"
       y1="105.105"
       x2="84.63858"
       y2="20.895"
       id="linearGradient3260-6"
       xlink:href="#linearGradient5128-3"
       gradientUnits="userSpaceOnUse"
       gradientTransform="matrix(0.09614231,0,0,0.09614231,1.8468935,1.9430362)" />
    <linearGradient
       id="linearGradient5128-3">
      <stop
         id="stop5130-1"
         style="stop-color:#e5e5e5;stop-opacity:1"
         offset="0" />
      <stop
         id="stop5132-1"
         style="stop-color:#ababab;stop-opacity:1"
         offset="1" />
    </linearGradient>
    <linearGradient
       inkscape:collect="always"
       xlink:href="#linearGradient1370"
       id="linearGradient1378"
       gradientUnits="userSpaceOnUse"
       x1="67.191383"
       y1="53.570553"
       x2="84"
       y2="39"
       gradientTransform="matrix(0.1634306,0,0,0.16548394,-1.4094819,1.8462039)" />
  </defs>
  <metadata
     id="metadata3282">
    <rdf:RDF>
      <cc:Work
         rdf:about="">
        <dc:format>image/svg+xml</dc:format>
        <dc:type
           rdf:resource="http://purl.org/dc/dcmitype/StillImage" />
        <dc:title />
      </cc:Work>
    </rdf:RDF>
  </metadata>
  <rect
     style="opacity:1;fill:#dce000;fill-opacity:1;stroke:#3a3a21;stroke-width:0.51625836;stroke-linejoin:miter;stroke-miterlimit:2;stroke-dasharray:none;stroke-opacity:1;paint-order:markers fill stroke"
     id="rect1552-6"
     width="12.057395"
     height="13.367533"
     x="3.7831879"
     y="2.4522591"
     transform="matrix(1,0,-0.00175692,0.99999846,0,0)"
     clip-path="none" />
  <rect
     style="opacity:1;fill:#f0f300;fill-opacity:1;stroke:#67682b;stroke-width:0.63400054;stroke-linejoin:miter;stroke-miterlimit:2;stroke-dasharray:none;stroke-opacity:1;paint-order:markers fill stroke"
     id="rect1552-3"
     width="12.69012"
     height="13.383947"
     x="2.146014"
     y="1.5037061"
     transform="matrix(1,0,-0.00184685,0.99999829,0,0)"
     clip-path="none" />
  <rect
     style="opacity:1;fill:#faf500;fill-opacity:1;stroke:#8f903c;stroke-width:0.93800086;stroke-linejoin:miter;stroke-miterlimit:2;stroke-dasharray:none;stroke-opacity:1;paint-order:markers fill stroke"
     id="rect1552"
     width="13.052185"
     height="13.151838"
     x="0.55169308"
     y="0.46974578"
     transform="matrix(1,0,-0.00193306,0.99999813,0,0)"
     clip-path="none" />
  <rect
     style="opacity:1;fill:#fffcf7;fill-opacity:1;stroke:#5f5f4e;stroke-width:0.81408101;stroke-linejoin:round;stroke-miterlimit:4;stroke-dasharray:none;stroke-dashoffset:0;stroke-opacity:1"
     id="rect1016"
     width="11.257376"
     height="6.0878234"
     x="1.3269591"
     y="1.3690917"
     ry="3.0439117"
     transform="matrix(1,0,0.01995259,0.99980093,0,0)" />
  <g
     inkscape:groupmode="layer"
     id="layer1"
     inkscape:label="Pencil"
     style="display:inline">
    <g
       id="g1082"
       transform="matrix(0.78121486,0,0,0.86933496,3.0939257,2.2967616)">
      <path
         d="M 7.6027356,4.5266608 C 7.7765511,4.7602113 7.4947624,5.3812126 6.9571816,5.939465 6.4208874,6.4963825 5.8338166,6.7762561 5.6057053,6.6004832 c -8.661e-4,-6.785e-4 -0.011703,0.013724 -0.012561,0.013043 l 8.2420177,8.4744368 c 0.209258,0.215159 0.829917,-0.07698 1.384563,-0.652955 0.554648,-0.575974 0.834286,-1.218751 0.625026,-1.433911 z"
         id="rect2383"
         style="fill:url(#linearGradient1378);fill-opacity:1;stroke:#000000;stroke-width:0.65899998;stroke-linecap:butt;stroke-linejoin:round;stroke-miterlimit:4;stroke-dasharray:none;stroke-dashoffset:0;stroke-opacity:1"
         inkscape:connector-curvature="0" />
      <path
         d="m 14.838876,11.966857 c 0.173816,0.23355 -0.107973,0.854552 -0.645553,1.412804 -0.536295,0.556917 -1.123365,0.836791 -1.351476,0.661018 -8.66e-4,-6.78e-4 -0.0117,0.01372 -0.01256,0.01304 l 1.005875,1.03424 0.02053,0.02111 c 8.5e-4,6.95e-4 0.01169,-0.01371 0.01256,-0.01304 0.228111,0.175771 0.815181,-0.104102 1.351475,-0.66102 0.537581,-0.558252 0.81937,-1.179254 0.645555,-1.412804 l -0.02053,-0.02111 -1.005874,-1.034239 z"
         id="rect3175"
         style="opacity:0.8;fill:#ff9de8;fill-opacity:1;stroke:#dd78c5;stroke-width:0.25851372;stroke-linecap:butt;stroke-linejoin:round;stroke-miterlimit:4;stroke-dasharray:none;stroke-dashoffset:0;stroke-opacity:1"
         inkscape:connector-curvature="0" />
      <path
         d="m 13.711413,10.8076 c 0.173816,0.23355 -0.107973,0.854552 -0.645554,1.412804 -0.536294,0.556917 -1.123365,0.836791 -1.351476,0.661018 -8.66e-4,-6.79e-4 -0.0117,0.01372 -0.01256,0.01304 L 11.804462,13 c 8.67e-4,6.95e-4 0.01169,-0.01371 0.01256,-0.01304 0.228111,0.175772 0.815182,-0.104101 1.351476,-0.661019 0.537582,-0.558252 0.819371,-1.179254 0.645555,-1.412804 l -0.10264,-0.105535 z"
         id="path3233"
         style="fill:url(#linearGradient3260);fill-opacity:1;stroke:none;stroke-width:0.28496948"
         inkscape:connector-curvature="0" />
      <path
         d="m 13.61735,10.710884 c 0.173815,0.23355 -0.107973,0.854552 -0.645554,1.412804 -0.536294,0.556918 -1.123365,0.836791 -1.351476,0.661018 -8.66e-4,-6.78e-4 -0.0117,0.01372 -0.01256,0.01304 l 0.102641,0.105534 c 8.66e-4,6.95e-4 0.01169,-0.01371 0.01256,-0.01304 0.228111,0.175773 0.815182,-0.104101 1.351476,-0.661019 0.537581,-0.558252 0.81937,-1.179254 0.645554,-1.412804 z"
         id="path3216"
         style="fill:url(#linearGradient3257);fill-opacity:1;stroke:none;stroke-width:0.28496948"
         inkscape:connector-curvature="0" />
      <path
         d="m 14.038282,11.143687 c 0.173816,0.233549 -0.107973,0.854552 -0.645554,1.412804 -0.536294,0.556917 -1.123364,0.836791 -1.351476,0.661018 -8.66e-4,-6.79e-4 -0.0117,0.01372 -0.01256,0.01304 l 0.10264,0.105535 c 8.66e-4,6.95e-4 0.01169,-0.01371 0.01256,-0.01304 0.228111,0.175773 0.815181,-0.104101 1.351475,-0.661019 0.537581,-0.558252 0.81937,-1.179253 0.645554,-1.412804 z"
         id="path3248"
         style="fill:url(#linearGradient3254);fill-opacity:1;stroke:none;stroke-width:0.28496948"
         inkscape:connector-curvature="0" />
      <path
         d="m 13.944219,11.046971 c 0.173816,0.23355 -0.107973,0.854552 -0.645554,1.412804 -0.536294,0.556917 -1.123364,0.836791 -1.351476,0.661018 -8.66e-4,-6.78e-4 -0.0117,0.01372 -0.01256,0.01304 l 0.102641,0.105535 c 8.66e-4,6.95e-4 0.01169,-0.01371 0.01256,-0.01304 0.228112,0.175773 0.815182,-0.1041 1.351476,-0.661018 0.537581,-0.558252 0.81937,-1.179254 0.645554,-1.412804 l -0.10264,-0.105535 z"
         id="path3250"
         style="fill:url(#linearGradient3251);fill-opacity:1;stroke:none;stroke-width:0.28496948"
         inkscape:connector-curvature="0" />
      <path
         d="m 14.366731,11.481398 c 0.173816,0.233549 -0.107973,0.854551 -0.645554,1.412803 -0.536294,0.556918 -1.123365,0.836792 -1.351476,0.661019 -8.66e-4,-6.79e-4 -0.0117,0.01372 -0.01256,0.01304 l 0.10264,0.105535 c 8.66e-4,6.95e-4 0.01169,-0.01371 0.01256,-0.01304 0.228111,0.175773 0.815182,-0.1041 1.351476,-0.661018 0.537581,-0.558252 0.819369,-1.179254 0.645554,-1.412804 z"
         id="path3256"
         style="fill:url(#linearGradient3248);fill-opacity:1;stroke:none;stroke-width:0.28496948"
         inkscape:connector-curvature="0" />
      <path
         d="m 14.272668,11.384681 c 0.173816,0.233551 -0.107973,0.854553 -0.645554,1.412805 -0.536294,0.556917 -1.123365,0.836791 -1.351476,0.661018 -8.66e-4,-6.79e-4 -0.0117,0.01372 -0.01256,0.01304 l 0.10264,0.105535 c 8.66e-4,6.95e-4 0.01169,-0.01371 0.01256,-0.01304 0.228112,0.175773 0.815182,-0.104101 1.351477,-0.661019 0.53758,-0.558251 0.819369,-1.179253 0.645553,-1.412804 l -0.10264,-0.105534 z"
         id="path3258"
         style="fill:url(#linearGradient3245);fill-opacity:1;stroke:none;stroke-width:0.28496948"
         inkscape:connector-curvature="0" />
      <path
         d="m 3.9016002,2.8024691 1.6136784,3.7602072 0.031796,0.03284 C 5.7751853,6.7712895 6.3621361,6.4874191 6.8984307,5.9305018 7.4360115,5.3722492 7.7161278,4.7519219 7.542312,4.5183714 Z"
         id="path3270"
         style="fill:url(#linearGradient3268);fill-opacity:1;fill-rule:evenodd;stroke:url(#linearGradient3270);stroke-width:0.759;stroke-linecap:butt;stroke-linejoin:miter;stroke-miterlimit:4;stroke-dasharray:none;stroke-opacity:1"
         inkscape:connector-curvature="0" />
      <path
         d="M 5,3 3.4696409,2.3524505 4.1585444,3.7812863 C 4.2992443,3.6745763 4.4426414,3.576603 4.5819022,3.4473008 4.7422283,3.2984387 4.8710632,3.1508686 5,3 Z"
         id="path3281"
         style="fill:#000000;fill-opacity:1;fill-rule:evenodd;stroke:#000000;stroke-width:0.38085088;stroke-linecap:butt;stroke-linejoin:miter;stroke-miterlimit:4;stroke-dasharray:none;stroke-opacity:1"
         inkscape:connector-curvature="0" />
    </g>
  </g>
</svg>
